# xmcd
#
# Track frame offsets: 
#        150
#        27241
#        45466
#        66252
#        93304
#        114564
#        128179
#        157389
#        179174
#        196032
#        216174
#
# Disc length: 3143 seconds
#
# Revision: 0
# Processed by: cddbd v1.5.2PL0 Copyright (c) Steve Scherf et al.
# Submitted via: ExactAudioCopy v0.99pb5
#
DISCID=a00c450b
DTITLE=A. G. Weinberger - Guitar Man 2
DYEAR=1999
DGENRE=Blues
TTITLE0=Willing to Go
TTITLE1=Beast of Burden
TTITLE2=Guess Who
TTITLE3=Built for Comfort
TTITLE4=Try to Get Into the Middle of the Real
TTITLE5=When My Heart Beats Like a Hammer
TTITLE6=Missing Hometown Serenade
TTITLE7=Forty Days and Forty Nights
TTITLE8=Fly Over Me
TTITLE9=Shake That Thing
TTITLE10=I Just Wanna Make Love to You
EXTD=
EXTT0=
EXTT1=
EXTT2=
EXTT3=
EXTT4=
EXTT5=
EXTT6=
EXTT7=
EXTT8=
EXTT9=
EXTT10=
PLAYORDER=
